<svg id="Capa_1" enable-background="new 0 0 512.028 512.028" height="512" viewBox="0 0 512.028 512.028" width="512" xmlns="http://www.w3.org/2000/svg"><g><path d="m459.821 79.289c-56.276-56.276-147.517-56.276-203.793 0-56.276-56.276-147.517-56.276-203.793 0-56.276 56.276-56.276 147.517 0 203.793l183.478 183.478c11.22 11.22 29.41 11.22 40.63 0l183.478-183.478c56.276-56.276 56.276-147.518 0-203.793z" fill="#ec9eb0"/><g fill="#fff"><ellipse cx="192.581" cy="180.187" rx="29.35" ry="75.897" transform="matrix(.893 -.449 .449 .893 -60.417 105.711)"/><ellipse cx="319.475" cy="180.187" rx="75.897" ry="29.35" transform="matrix(.449 -.893 .893 .449 14.981 384.674)"/><path d="m320.951 272.346c.168-1.882.28-3.781.28-5.707 0-36.011-29.192-65.203-65.203-65.203s-65.203 29.192-65.203 65.203c0 1.926.112 3.825.28 5.707-12.258 9.568-20.148 24.47-20.148 41.225 0 28.874 23.407 52.281 52.281 52.281 12.42 0 23.822-4.339 32.791-11.573 8.969 7.234 20.371 11.573 32.791 11.573 28.874 0 52.281-23.407 52.281-52.281-.001-16.754-7.892-31.657-20.15-41.225z"/></g><g><path d="m466.892 72.218c-29.106-29.107-67.805-45.137-108.968-45.137-37.912 0-73.734 13.599-101.896 38.487-22.266-19.682-49.355-32.336-78.91-36.772-32.099-4.817-64.278.4-93.052 15.091-4.919 2.511-6.871 8.535-4.359 13.454 2.512 4.92 8.537 6.872 13.453 4.359 25.033-12.781 53.038-17.32 80.989-13.125 28.498 4.277 54.365 17.343 74.808 37.786 1.876 1.875 4.419 2.929 7.071 2.929s5.195-1.054 7.071-2.929c25.328-25.329 59.005-39.278 94.825-39.278s69.497 13.95 94.825 39.279c25.329 25.329 39.278 59.005 39.278 94.825s-13.949 69.496-39.278 94.825l-183.478 183.477c-3.537 3.537-8.241 5.485-13.244 5.485-5.002 0-9.706-1.948-13.243-5.485l-183.478-183.479c-20.441-20.441-33.508-46.308-37.785-74.804-4.195-27.949.343-55.954 13.122-80.987 2.512-4.919.56-10.942-4.359-13.454-4.916-2.509-10.941-.559-13.453 4.36-14.689 28.774-19.906 60.949-15.088 93.05 4.917 32.758 19.932 62.489 43.421 85.977l183.478 183.479c7.315 7.315 17.041 11.343 27.386 11.343 10.346 0 20.071-4.028 27.387-11.343l183.479-183.479c29.106-29.106 45.136-67.805 45.136-108.967s-16.031-79.861-45.138-108.967z"/><path d="m372.078 142.529c1.108-11.407.762-31.654-14.018-39.085-23.083-11.604-54.567 20.932-73.742 59.067-5.119 10.181-9.309 20.611-12.339 30.644-5.144-1.116-10.478-1.719-15.951-1.719s-10.806.603-15.95 1.719c-3.03-10.033-7.221-20.463-12.34-30.644-19.175-38.135-50.654-70.673-73.742-59.067-14.779 7.431-15.126 27.678-14.018 39.085 1.604 16.495 7.8 36.146 17.446 55.334 8.184 16.275 18.153 30.796 28.496 41.616-3.278 8.431-5.096 17.584-5.096 27.16 0 .435.005.875.015 1.324-12.698 11.77-19.883 28.111-19.883 45.608 0 34.342 27.938 62.281 62.28 62.281 11.594 0 22.991-3.279 32.791-9.343 9.8 6.063 21.197 9.343 32.791 9.343 34.342 0 62.281-27.939 62.281-62.281 0-17.497-7.185-33.839-19.884-45.608.01-.448.015-.889.015-1.323 0-9.575-1.818-18.729-5.096-27.159 10.343-10.82 20.312-25.34 28.496-41.616 9.648-19.19 15.844-38.841 17.448-55.336zm-196.784 46.35c-8.442-16.79-14.059-34.389-15.409-48.285-1.196-12.312 1.264-18.36 3.096-19.281 5.018-2.534 27.662 11.941 46.889 50.182 4.799 9.543 8.656 19.258 11.367 28.505-9.796 5.135-18.326 12.36-24.992 21.088-7.516-8.795-14.753-19.881-20.951-32.209zm113.525 166.973c-8.212 0-16.003-2.301-22.791-6.678v-5.895l13.604-13.605c3.905-3.905 3.905-10.237 0-14.142-3.906-3.905-10.236-3.905-14.143 0l-9.462 9.462-9.462-9.462c-3.905-3.905-10.235-3.905-14.143 0-3.905 3.905-3.905 10.237 0 14.142l13.604 13.605v5.895c-6.788 4.377-14.579 6.678-22.791 6.678-23.313 0-42.28-18.967-42.28-42.281 0-13.103 5.941-25.255 16.302-33.342 2.675-2.088 4.108-5.391 3.807-8.771-.161-1.815-.24-3.391-.24-4.818 0-30.439 24.764-55.203 55.203-55.203s55.203 24.764 55.203 55.203c0 1.427-.079 3.003-.24 4.818-.302 3.38 1.132 6.683 3.807 8.771 10.36 8.087 16.303 20.24 16.303 33.342 0 23.314-18.967 42.281-42.281 42.281zm63.353-215.258c-1.351 13.896-6.967 31.495-15.409 48.285-6.199 12.328-13.436 23.415-20.95 32.21-6.667-8.729-15.197-15.953-24.993-21.089 2.711-9.247 6.569-18.964 11.367-28.505 19.226-38.239 41.86-52.704 46.889-50.182 1.832.921 4.292 6.97 3.096 19.281z"/><circle cx="52.268" cy="79.33" r="10"/><circle cx="234.363" cy="281.559" r="10"/><circle cx="276.363" cy="281.559" r="10"/></g></g></svg>